<mxfile host="Electron" agent="Mozilla/5.0 (Windows NT 10.0; Win64; x64) AppleWebKit/537.36 (KHTML, like Gecko) draw.io/24.7.8 Chrome/128.0.6613.36 Electron/32.0.1 Safari/537.36" version="24.7.8">
  <diagram name="Page-1" id="RHtkYRniaPK4UWz4UMcr">
    <mxGraphModel dx="1040" dy="712" grid="1" gridSize="10" guides="1" tooltips="1" connect="1" arrows="1" fold="1" page="1" pageScale="1" pageWidth="850" pageHeight="1100" math="0" shadow="0">
      <root>
        <mxCell id="0" />
        <mxCell id="1" parent="0" />
        <mxCell id="9PImS5-fUcPCgKuIllFG-1" value="&lt;b style=&quot;font-size: 17px;&quot;&gt;&lt;i style=&quot;&quot;&gt;&lt;font style=&quot;font-size: 17px;&quot; face=&quot;Times New Roman&quot;&gt;Smriti Kohli&#39;s&amp;nbsp;&lt;/font&gt;&lt;/i&gt;&lt;/b&gt;&lt;div style=&quot;font-size: 17px;&quot;&gt;&lt;b style=&quot;&quot;&gt;&lt;i style=&quot;&quot;&gt;&lt;font style=&quot;font-size: 17px;&quot; face=&quot;nbbwh7O5vWIcj30RTa0P&quot;&gt;Digital Portfolio&lt;/font&gt;&lt;/i&gt;&lt;/b&gt;&lt;/div&gt;&lt;div style=&quot;font-size: 17px;&quot;&gt;&lt;b style=&quot;&quot;&gt;&lt;i style=&quot;&quot;&gt;&lt;font style=&quot;font-size: 17px;&quot; face=&quot;nbbwh7O5vWIcj30RTa0P&quot;&gt;(nav buttons)&lt;/font&gt;&lt;/i&gt;&lt;/b&gt;&lt;/div&gt;" style="rounded=0;whiteSpace=wrap;html=1;fillColor=#60a917;fontColor=#ffffff;strokeColor=#2D7600;" vertex="1" parent="1">
          <mxGeometry x="290" y="10" width="150" height="70" as="geometry" />
        </mxCell>
        <mxCell id="9PImS5-fUcPCgKuIllFG-2" value="&lt;font style=&quot;font-size: 20px;&quot;&gt;&lt;i style=&quot;&quot;&gt;&lt;b style=&quot;&quot;&gt;Footer&lt;/b&gt;&lt;/i&gt;&lt;/font&gt;&lt;div style=&quot;font-size: 20px;&quot;&gt;&lt;br&gt;&lt;/div&gt;" style="rounded=0;whiteSpace=wrap;html=1;fillColor=#7EA6E0;" vertex="1" parent="1">
          <mxGeometry x="520" y="560" width="120" height="50" as="geometry" />
        </mxCell>
        <mxCell id="9PImS5-fUcPCgKuIllFG-3" value="&lt;b&gt;&lt;i&gt;&lt;font style=&quot;font-size: 20px;&quot;&gt;Home&lt;/font&gt;&lt;/i&gt;&lt;/b&gt;&lt;div&gt;&lt;br&gt;&lt;/div&gt;" style="ellipse;whiteSpace=wrap;html=1;fillColor=#7EA6E0;fontColor=#ffffff;strokeColor=#2D7600;" vertex="1" parent="1">
          <mxGeometry x="30" y="160" width="120" height="80" as="geometry" />
        </mxCell>
        <mxCell id="9PImS5-fUcPCgKuIllFG-4" value="&lt;b&gt;&lt;i&gt;&lt;font style=&quot;font-size: 20px;&quot;&gt;Resume&amp;nbsp;&lt;/font&gt;&lt;/i&gt;&lt;/b&gt;&lt;div&gt;&lt;br&gt;&lt;/div&gt;" style="ellipse;whiteSpace=wrap;html=1;strokeColor=#7EA6E0;gradientColor=none;fillColor=#7EA6E0;" vertex="1" parent="1">
          <mxGeometry x="200" y="240" width="130" height="90" as="geometry" />
        </mxCell>
        <mxCell id="9PImS5-fUcPCgKuIllFG-5" value="&lt;font style=&quot;font-size: 14px;&quot;&gt;&lt;b&gt;&lt;i&gt;Contact&lt;/i&gt;&lt;/b&gt;&lt;/font&gt;&lt;div&gt;(Contains a form )&lt;/div&gt;" style="ellipse;whiteSpace=wrap;html=1;fillColor=#7EA6E0;" vertex="1" parent="1">
          <mxGeometry x="400" y="160" width="120" height="80" as="geometry" />
        </mxCell>
        <mxCell id="9PImS5-fUcPCgKuIllFG-6" value="&lt;font style=&quot;font-size: 14px;&quot;&gt;&lt;b&gt;&lt;i&gt;Projects&lt;/i&gt;&lt;/b&gt;&lt;/font&gt;&lt;div&gt;(Contains my projects with images)&lt;/div&gt;" style="ellipse;whiteSpace=wrap;html=1;fillColor=#7EA6E0;" vertex="1" parent="1">
          <mxGeometry x="600" y="250" width="120" height="80" as="geometry" />
        </mxCell>
        <mxCell id="9PImS5-fUcPCgKuIllFG-7" value="&lt;font style=&quot;font-size: 16px;&quot;&gt;&lt;b&gt;&lt;i&gt;CSS&lt;/i&gt;&lt;/b&gt;&lt;/font&gt;&lt;div&gt;(Assignment.css is the external css file which contains css for all four html pages)&lt;/div&gt;" style="ellipse;whiteSpace=wrap;html=1;fillColor=#60a917;fontColor=#ffffff;strokeColor=#2D7600;" vertex="1" parent="1">
          <mxGeometry x="250" y="530" width="150" height="130" as="geometry" />
        </mxCell>
        <mxCell id="9PImS5-fUcPCgKuIllFG-8" value="&lt;font style=&quot;font-size: 15px;&quot;&gt;&lt;b&gt;&lt;i&gt;JavaScript&lt;/i&gt;&lt;/b&gt;&lt;/font&gt;&lt;div&gt;(projects.js contain the javascript to display my projects as slidehow to users)&lt;/div&gt;" style="ellipse;whiteSpace=wrap;html=1;fillColor=#60a917;fontColor=#ffffff;strokeColor=#7EA6E0;strokeWidth=5;" vertex="1" parent="1">
          <mxGeometry x="450" y="368.75" width="150" height="120" as="geometry" />
        </mxCell>
        <mxCell id="9PImS5-fUcPCgKuIllFG-10" value="" style="shape=curlyBracket;whiteSpace=wrap;html=1;rounded=1;labelPosition=left;verticalLabelPosition=middle;align=right;verticalAlign=middle;rotation=90;size=0.5;" vertex="1" parent="1">
          <mxGeometry x="356.25" y="-178.75" width="20" height="547.5" as="geometry" />
        </mxCell>
        <mxCell id="9PImS5-fUcPCgKuIllFG-13" value="" style="shape=flexArrow;endArrow=classic;html=1;rounded=0;endWidth=26;endSize=7.44;entryX=0.5;entryY=0;entryDx=0;entryDy=0;exitX=0.51;exitY=0.689;exitDx=0;exitDy=0;exitPerimeter=0;fillColor=#000000;" edge="1" parent="1" source="9PImS5-fUcPCgKuIllFG-10" target="9PImS5-fUcPCgKuIllFG-4">
          <mxGeometry width="50" height="50" relative="1" as="geometry">
            <mxPoint x="290" y="110" as="sourcePoint" />
            <mxPoint x="350" y="100" as="targetPoint" />
          </mxGeometry>
        </mxCell>
        <mxCell id="9PImS5-fUcPCgKuIllFG-14" value="" style="shape=flexArrow;endArrow=classic;html=1;rounded=0;endWidth=26;endSize=7.44;entryX=0.5;entryY=0;entryDx=0;entryDy=0;exitX=0.467;exitY=0.679;exitDx=0;exitDy=0;exitPerimeter=0;fillColor=#000000;" edge="1" parent="1">
          <mxGeometry width="50" height="50" relative="1" as="geometry">
            <mxPoint x="91" y="94" as="sourcePoint" />
            <mxPoint x="90" y="160" as="targetPoint" />
          </mxGeometry>
        </mxCell>
        <mxCell id="9PImS5-fUcPCgKuIllFG-15" value="" style="shape=flexArrow;endArrow=classic;html=1;rounded=0;endWidth=26;endSize=7.44;entryX=0.5;entryY=0;entryDx=0;entryDy=0;exitX=0.467;exitY=0.679;exitDx=0;exitDy=0;exitPerimeter=0;fillColor=#000000;" edge="1" parent="1">
          <mxGeometry width="50" height="50" relative="1" as="geometry">
            <mxPoint x="460.5" y="94" as="sourcePoint" />
            <mxPoint x="459.5" y="160" as="targetPoint" />
          </mxGeometry>
        </mxCell>
        <mxCell id="9PImS5-fUcPCgKuIllFG-17" value="" style="shape=flexArrow;endArrow=classic;html=1;rounded=0;endWidth=26;endSize=7.44;entryX=0.362;entryY=0.012;entryDx=0;entryDy=0;exitX=0.467;exitY=0.679;exitDx=0;exitDy=0;exitPerimeter=0;fillColor=#000000;entryPerimeter=0;" edge="1" parent="1" target="9PImS5-fUcPCgKuIllFG-6">
          <mxGeometry width="50" height="50" relative="1" as="geometry">
            <mxPoint x="641" y="94" as="sourcePoint" />
            <mxPoint x="640" y="160" as="targetPoint" />
          </mxGeometry>
        </mxCell>
        <mxCell id="9PImS5-fUcPCgKuIllFG-26" style="edgeStyle=orthogonalEdgeStyle;rounded=0;orthogonalLoop=1;jettySize=auto;html=1;exitX=0.5;exitY=1;exitDx=0;exitDy=0;" edge="1" parent="1" source="9PImS5-fUcPCgKuIllFG-2" target="9PImS5-fUcPCgKuIllFG-2">
          <mxGeometry relative="1" as="geometry" />
        </mxCell>
        <mxCell id="9PImS5-fUcPCgKuIllFG-32" value="Introduction" style="rounded=0;whiteSpace=wrap;html=1;fillColor=#60a917;fontColor=#ffffff;strokeColor=#2D7600;" vertex="1" parent="1">
          <mxGeometry x="100" y="247.5" width="70" height="35" as="geometry" />
        </mxCell>
        <mxCell id="9PImS5-fUcPCgKuIllFG-33" value="My pic" style="rounded=0;whiteSpace=wrap;html=1;fillColor=#60a917;fontColor=#ffffff;strokeColor=#2D7600;" vertex="1" parent="1">
          <mxGeometry x="30" y="250" width="60" height="35" as="geometry" />
        </mxCell>
        <mxCell id="9PImS5-fUcPCgKuIllFG-34" value="Summary&amp;nbsp;" style="rounded=0;whiteSpace=wrap;html=1;fillColor=#60a917;fontColor=#ffffff;strokeColor=#2D7600;" vertex="1" parent="1">
          <mxGeometry x="50" y="380" width="70" height="40" as="geometry" />
        </mxCell>
        <mxCell id="9PImS5-fUcPCgKuIllFG-35" value="Skills" style="rounded=0;whiteSpace=wrap;html=1;fillColor=#60a917;fontColor=#ffffff;strokeColor=#2D7600;" vertex="1" parent="1">
          <mxGeometry x="130" y="380" width="50" height="40" as="geometry" />
        </mxCell>
        <mxCell id="9PImS5-fUcPCgKuIllFG-36" value="Work-Experience&lt;span style=&quot;color: rgba(0, 0, 0, 0); font-family: monospace; font-size: 0px; text-align: start; text-wrap: nowrap;&quot;&gt;%3CmxGraphModel%3E%3Croot%3E%3CmxCell%20id%3D%220%22%2F%3E%3CmxCell%20id%3D%221%22%20parent%3D%220%22%2F%3E%3CmxCell%20id%3D%222%22%20value%3D%22Summary%26amp%3Bnbsp%3B%22%20style%3D%22rounded%3D0%3BwhiteSpace%3Dwrap%3Bhtml%3D1%3B%22%20vertex%3D%221%22%20parent%3D%221%22%3E%3CmxGeometry%20x%3D%2250%22%20y%3D%22380%22%20width%3D%2270%22%20height%3D%2240%22%20as%3D%22geometry%22%2F%3E%3C%2FmxCell%3E%3C%2Froot%3E%3C%2FmxGraphModel%3E&lt;/span&gt;" style="rounded=0;whiteSpace=wrap;html=1;fillColor=#60a917;fontColor=#ffffff;strokeColor=#2D7600;" vertex="1" parent="1">
          <mxGeometry x="270" y="380" width="70" height="40" as="geometry" />
        </mxCell>
        <mxCell id="9PImS5-fUcPCgKuIllFG-37" value="Volunteer-Experience" style="rounded=0;whiteSpace=wrap;html=1;fillColor=#60a917;fontColor=#ffffff;strokeColor=#2D7600;" vertex="1" parent="1">
          <mxGeometry x="350" y="380" width="70" height="40" as="geometry" />
        </mxCell>
        <mxCell id="9PImS5-fUcPCgKuIllFG-38" value="Education" style="rounded=0;whiteSpace=wrap;html=1;fillColor=#60a917;fontColor=#ffffff;strokeColor=#2D7600;" vertex="1" parent="1">
          <mxGeometry x="190" y="380" width="70" height="40" as="geometry" />
        </mxCell>
        <mxCell id="9PImS5-fUcPCgKuIllFG-40" value="Awards" style="rounded=0;whiteSpace=wrap;html=1;fillColor=#60a917;fontColor=#ffffff;strokeColor=#2D7600;" vertex="1" parent="1">
          <mxGeometry x="210" y="430" width="70" height="40" as="geometry" />
        </mxCell>
        <mxCell id="9PImS5-fUcPCgKuIllFG-43" value="Certifications" style="rounded=0;whiteSpace=wrap;html=1;fillColor=#60a917;fontColor=#ffffff;strokeColor=#2D7600;" vertex="1" parent="1">
          <mxGeometry x="130" y="430" width="70" height="40" as="geometry" />
        </mxCell>
        <mxCell id="9PImS5-fUcPCgKuIllFG-44" value="Memberships" style="rounded=0;whiteSpace=wrap;html=1;fillColor=#60a917;fontColor=#ffffff;strokeColor=#2D7600;" vertex="1" parent="1">
          <mxGeometry x="300" y="430" width="80" height="40" as="geometry" />
        </mxCell>
        <mxCell id="9PImS5-fUcPCgKuIllFG-45" value="" style="endArrow=classic;html=1;rounded=0;entryX=0.5;entryY=0;entryDx=0;entryDy=0;exitX=1;exitY=0.5;exitDx=0;exitDy=0;" edge="1" parent="1" source="9PImS5-fUcPCgKuIllFG-4" target="9PImS5-fUcPCgKuIllFG-37">
          <mxGeometry width="50" height="50" relative="1" as="geometry">
            <mxPoint x="320" y="310" as="sourcePoint" />
            <mxPoint x="370" y="260" as="targetPoint" />
          </mxGeometry>
        </mxCell>
        <mxCell id="9PImS5-fUcPCgKuIllFG-46" value="" style="endArrow=classic;html=1;rounded=0;entryX=0.75;entryY=0;entryDx=0;entryDy=0;" edge="1" parent="1" target="9PImS5-fUcPCgKuIllFG-36">
          <mxGeometry width="50" height="50" relative="1" as="geometry">
            <mxPoint x="320" y="310" as="sourcePoint" />
            <mxPoint x="370" y="260" as="targetPoint" />
          </mxGeometry>
        </mxCell>
        <mxCell id="9PImS5-fUcPCgKuIllFG-47" value="" style="endArrow=classic;html=1;rounded=0;entryX=0.602;entryY=0.174;entryDx=0;entryDy=0;entryPerimeter=0;exitX=0.983;exitY=0.605;exitDx=0;exitDy=0;exitPerimeter=0;" edge="1" parent="1" source="9PImS5-fUcPCgKuIllFG-4" target="9PImS5-fUcPCgKuIllFG-44">
          <mxGeometry width="50" height="50" relative="1" as="geometry">
            <mxPoint x="320" y="310" as="sourcePoint" />
            <mxPoint x="370" y="260" as="targetPoint" />
          </mxGeometry>
        </mxCell>
        <mxCell id="9PImS5-fUcPCgKuIllFG-48" value="" style="endArrow=classic;html=1;rounded=0;entryX=0.75;entryY=0;entryDx=0;entryDy=0;exitX=0.5;exitY=1;exitDx=0;exitDy=0;" edge="1" parent="1" source="9PImS5-fUcPCgKuIllFG-4" target="9PImS5-fUcPCgKuIllFG-40">
          <mxGeometry width="50" height="50" relative="1" as="geometry">
            <mxPoint x="320" y="310" as="sourcePoint" />
            <mxPoint x="370" y="260" as="targetPoint" />
          </mxGeometry>
        </mxCell>
        <mxCell id="9PImS5-fUcPCgKuIllFG-49" value="" style="endArrow=classic;html=1;rounded=0;entryX=0.5;entryY=0;entryDx=0;entryDy=0;exitX=0.346;exitY=0.917;exitDx=0;exitDy=0;exitPerimeter=0;" edge="1" parent="1" source="9PImS5-fUcPCgKuIllFG-4" target="9PImS5-fUcPCgKuIllFG-38">
          <mxGeometry width="50" height="50" relative="1" as="geometry">
            <mxPoint x="320" y="310" as="sourcePoint" />
            <mxPoint x="370" y="260" as="targetPoint" />
          </mxGeometry>
        </mxCell>
        <mxCell id="9PImS5-fUcPCgKuIllFG-50" value="" style="endArrow=classic;html=1;rounded=0;exitX=0.017;exitY=0.668;exitDx=0;exitDy=0;entryX=0.75;entryY=0;entryDx=0;entryDy=0;exitPerimeter=0;" edge="1" parent="1" source="9PImS5-fUcPCgKuIllFG-4" target="9PImS5-fUcPCgKuIllFG-43">
          <mxGeometry width="50" height="50" relative="1" as="geometry">
            <mxPoint x="320" y="310" as="sourcePoint" />
            <mxPoint x="370" y="260" as="targetPoint" />
          </mxGeometry>
        </mxCell>
        <mxCell id="9PImS5-fUcPCgKuIllFG-51" value="" style="endArrow=classic;html=1;rounded=0;exitX=0.022;exitY=0.629;exitDx=0;exitDy=0;exitPerimeter=0;entryX=0.75;entryY=0;entryDx=0;entryDy=0;" edge="1" parent="1" source="9PImS5-fUcPCgKuIllFG-4" target="9PImS5-fUcPCgKuIllFG-35">
          <mxGeometry width="50" height="50" relative="1" as="geometry">
            <mxPoint x="320" y="310" as="sourcePoint" />
            <mxPoint x="370" y="260" as="targetPoint" />
          </mxGeometry>
        </mxCell>
        <mxCell id="9PImS5-fUcPCgKuIllFG-52" value="" style="endArrow=classic;html=1;rounded=0;exitX=0.017;exitY=0.652;exitDx=0;exitDy=0;exitPerimeter=0;entryX=0.64;entryY=0.003;entryDx=0;entryDy=0;entryPerimeter=0;" edge="1" parent="1" source="9PImS5-fUcPCgKuIllFG-4" target="9PImS5-fUcPCgKuIllFG-34">
          <mxGeometry width="50" height="50" relative="1" as="geometry">
            <mxPoint x="320" y="310" as="sourcePoint" />
            <mxPoint x="370" y="260" as="targetPoint" />
          </mxGeometry>
        </mxCell>
        <mxCell id="9PImS5-fUcPCgKuIllFG-53" value="Last Name" style="rounded=0;whiteSpace=wrap;html=1;fillColor=#60a917;fontColor=#ffffff;strokeColor=#2D7600;" vertex="1" parent="1">
          <mxGeometry x="440" y="250" width="80" height="30" as="geometry" />
        </mxCell>
        <mxCell id="9PImS5-fUcPCgKuIllFG-54" value="First Name" style="rounded=0;whiteSpace=wrap;html=1;fillColor=#60a917;fontColor=#ffffff;strokeColor=#2D7600;" vertex="1" parent="1">
          <mxGeometry x="345" y="250" width="80" height="30" as="geometry" />
        </mxCell>
        <mxCell id="9PImS5-fUcPCgKuIllFG-55" value="email" style="rounded=0;whiteSpace=wrap;html=1;fillColor=#60a917;fontColor=#ffffff;strokeColor=#2D7600;" vertex="1" parent="1">
          <mxGeometry x="530" y="250" width="60" height="30" as="geometry" />
        </mxCell>
        <mxCell id="9PImS5-fUcPCgKuIllFG-56" style="edgeStyle=orthogonalEdgeStyle;rounded=0;orthogonalLoop=1;jettySize=auto;html=1;exitX=0.5;exitY=1;exitDx=0;exitDy=0;" edge="1" parent="1" source="9PImS5-fUcPCgKuIllFG-53" target="9PImS5-fUcPCgKuIllFG-53">
          <mxGeometry relative="1" as="geometry" />
        </mxCell>
        <mxCell id="9PImS5-fUcPCgKuIllFG-57" value="Subject" style="rounded=0;whiteSpace=wrap;html=1;fillColor=#60a917;fontColor=#ffffff;strokeColor=#2D7600;" vertex="1" parent="1">
          <mxGeometry x="390" y="290" width="80" height="30" as="geometry" />
        </mxCell>
        <mxCell id="9PImS5-fUcPCgKuIllFG-58" value="Message" style="rounded=0;whiteSpace=wrap;html=1;fillColor=#60a917;fontColor=#ffffff;strokeColor=#2D7600;" vertex="1" parent="1">
          <mxGeometry x="485" y="290" width="80" height="30" as="geometry" />
        </mxCell>
        <mxCell id="9PImS5-fUcPCgKuIllFG-59" value="" style="endArrow=classic;html=1;rounded=0;exitX=0.065;exitY=0.795;exitDx=0;exitDy=0;exitPerimeter=0;" edge="1" parent="1" source="9PImS5-fUcPCgKuIllFG-5">
          <mxGeometry width="50" height="50" relative="1" as="geometry">
            <mxPoint x="320" y="310" as="sourcePoint" />
            <mxPoint x="380" y="250" as="targetPoint" />
          </mxGeometry>
        </mxCell>
        <mxCell id="9PImS5-fUcPCgKuIllFG-62" value="" style="endArrow=classic;html=1;rounded=0;exitX=0.275;exitY=0.971;exitDx=0;exitDy=0;exitPerimeter=0;entryX=0.5;entryY=0;entryDx=0;entryDy=0;" edge="1" parent="1" source="9PImS5-fUcPCgKuIllFG-5" target="9PImS5-fUcPCgKuIllFG-57">
          <mxGeometry width="50" height="50" relative="1" as="geometry">
            <mxPoint x="320" y="310" as="sourcePoint" />
            <mxPoint x="370" y="260" as="targetPoint" />
          </mxGeometry>
        </mxCell>
        <mxCell id="9PImS5-fUcPCgKuIllFG-63" value="" style="endArrow=classic;html=1;rounded=0;exitX=0.5;exitY=1;exitDx=0;exitDy=0;entryX=0.5;entryY=0;entryDx=0;entryDy=0;" edge="1" parent="1" source="9PImS5-fUcPCgKuIllFG-5" target="9PImS5-fUcPCgKuIllFG-53">
          <mxGeometry width="50" height="50" relative="1" as="geometry">
            <mxPoint x="320" y="310" as="sourcePoint" />
            <mxPoint x="370" y="260" as="targetPoint" />
          </mxGeometry>
        </mxCell>
        <mxCell id="9PImS5-fUcPCgKuIllFG-64" value="" style="endArrow=classic;html=1;rounded=0;entryX=0.5;entryY=0;entryDx=0;entryDy=0;" edge="1" parent="1" target="9PImS5-fUcPCgKuIllFG-58">
          <mxGeometry width="50" height="50" relative="1" as="geometry">
            <mxPoint x="520" y="210" as="sourcePoint" />
            <mxPoint x="370" y="260" as="targetPoint" />
          </mxGeometry>
        </mxCell>
        <mxCell id="9PImS5-fUcPCgKuIllFG-65" value="" style="endArrow=classic;html=1;rounded=0;exitX=0.995;exitY=0.593;exitDx=0;exitDy=0;exitPerimeter=0;" edge="1" parent="1" source="9PImS5-fUcPCgKuIllFG-5" target="9PImS5-fUcPCgKuIllFG-55">
          <mxGeometry width="50" height="50" relative="1" as="geometry">
            <mxPoint x="320" y="310" as="sourcePoint" />
            <mxPoint x="370" y="260" as="targetPoint" />
          </mxGeometry>
        </mxCell>
        <mxCell id="9PImS5-fUcPCgKuIllFG-66" value="" style="shape=flexArrow;endArrow=classic;html=1;rounded=0;exitX=0.047;exitY=0.723;exitDx=0;exitDy=0;exitPerimeter=0;fillColor=#000000;" edge="1" parent="1" source="9PImS5-fUcPCgKuIllFG-6">
          <mxGeometry width="50" height="50" relative="1" as="geometry">
            <mxPoint x="460" y="520" as="sourcePoint" />
            <mxPoint x="530" y="370" as="targetPoint" />
          </mxGeometry>
        </mxCell>
        <mxCell id="9PImS5-fUcPCgKuIllFG-67" value="Gym Website" style="rounded=0;whiteSpace=wrap;html=1;fillColor=#60a917;fontColor=#ffffff;strokeColor=#2D7600;" vertex="1" parent="1">
          <mxGeometry x="680" y="345" width="90" height="30" as="geometry" />
        </mxCell>
        <mxCell id="9PImS5-fUcPCgKuIllFG-68" value="Fish Catch Count" style="rounded=0;whiteSpace=wrap;html=1;fillColor=#60a917;fontColor=#ffffff;strokeColor=#2D7600;" vertex="1" parent="1">
          <mxGeometry x="570" y="345" width="100" height="30" as="geometry" />
        </mxCell>
        <mxCell id="9PImS5-fUcPCgKuIllFG-69" value="Hometown Website" style="rounded=0;whiteSpace=wrap;html=1;fillColor=#60a917;fontColor=#ffffff;strokeColor=#2D7600;" vertex="1" parent="1">
          <mxGeometry x="780" y="340" width="70" height="40" as="geometry" />
        </mxCell>
        <mxCell id="9PImS5-fUcPCgKuIllFG-70" value="Database managemnt" style="rounded=0;whiteSpace=wrap;html=1;fillColor=#60a917;fontColor=#ffffff;strokeColor=#2D7600;" vertex="1" parent="1">
          <mxGeometry x="630" y="390" width="100" height="40" as="geometry" />
        </mxCell>
        <mxCell id="9PImS5-fUcPCgKuIllFG-71" value="" style="endArrow=classic;html=1;rounded=0;exitX=0.211;exitY=0.986;exitDx=0;exitDy=0;exitPerimeter=0;entryX=0.5;entryY=0;entryDx=0;entryDy=0;" edge="1" parent="1" source="9PImS5-fUcPCgKuIllFG-6" target="9PImS5-fUcPCgKuIllFG-68">
          <mxGeometry width="50" height="50" relative="1" as="geometry">
            <mxPoint x="460" y="480" as="sourcePoint" />
            <mxPoint x="510" y="430" as="targetPoint" />
          </mxGeometry>
        </mxCell>
        <mxCell id="9PImS5-fUcPCgKuIllFG-72" value="" style="endArrow=classic;html=1;rounded=0;exitX=0.603;exitY=1.039;exitDx=0;exitDy=0;exitPerimeter=0;" edge="1" parent="1" source="9PImS5-fUcPCgKuIllFG-6" target="9PImS5-fUcPCgKuIllFG-70">
          <mxGeometry width="50" height="50" relative="1" as="geometry">
            <mxPoint x="460" y="480" as="sourcePoint" />
            <mxPoint x="510" y="430" as="targetPoint" />
          </mxGeometry>
        </mxCell>
        <mxCell id="9PImS5-fUcPCgKuIllFG-73" value="" style="endArrow=classic;html=1;rounded=0;exitX=1;exitY=1;exitDx=0;exitDy=0;entryX=0.5;entryY=0;entryDx=0;entryDy=0;" edge="1" parent="1" source="9PImS5-fUcPCgKuIllFG-6" target="9PImS5-fUcPCgKuIllFG-67">
          <mxGeometry width="50" height="50" relative="1" as="geometry">
            <mxPoint x="460" y="480" as="sourcePoint" />
            <mxPoint x="510" y="430" as="targetPoint" />
          </mxGeometry>
        </mxCell>
        <mxCell id="9PImS5-fUcPCgKuIllFG-74" value="" style="endArrow=classic;html=1;rounded=0;exitX=0.971;exitY=0.732;exitDx=0;exitDy=0;exitPerimeter=0;entryX=0.5;entryY=0;entryDx=0;entryDy=0;" edge="1" parent="1" source="9PImS5-fUcPCgKuIllFG-6" target="9PImS5-fUcPCgKuIllFG-69">
          <mxGeometry width="50" height="50" relative="1" as="geometry">
            <mxPoint x="460" y="480" as="sourcePoint" />
            <mxPoint x="510" y="430" as="targetPoint" />
          </mxGeometry>
        </mxCell>
        <mxCell id="9PImS5-fUcPCgKuIllFG-75" value="Social media urls" style="rounded=0;whiteSpace=wrap;html=1;fillColor=#60a917;fontColor=#ffffff;strokeColor=#2D7600;" vertex="1" parent="1">
          <mxGeometry x="500" y="680" width="100" height="40" as="geometry" />
        </mxCell>
        <mxCell id="9PImS5-fUcPCgKuIllFG-76" value="Copyright reserved" style="rounded=0;whiteSpace=wrap;html=1;fillColor=#60a917;fontColor=#ffffff;strokeColor=#2D7600;" vertex="1" parent="1">
          <mxGeometry x="570" y="630" width="100" height="40" as="geometry" />
        </mxCell>
        <mxCell id="9PImS5-fUcPCgKuIllFG-77" value="" style="endArrow=classic;html=1;rounded=0;exitX=0.25;exitY=1;exitDx=0;exitDy=0;entryX=0.5;entryY=0;entryDx=0;entryDy=0;" edge="1" parent="1" source="9PImS5-fUcPCgKuIllFG-2" target="9PImS5-fUcPCgKuIllFG-75">
          <mxGeometry width="50" height="50" relative="1" as="geometry">
            <mxPoint x="420" y="430" as="sourcePoint" />
            <mxPoint x="470" y="380" as="targetPoint" />
          </mxGeometry>
        </mxCell>
        <mxCell id="9PImS5-fUcPCgKuIllFG-78" value="" style="endArrow=classic;html=1;rounded=0;exitX=0.599;exitY=0.925;exitDx=0;exitDy=0;entryX=0.25;entryY=0;entryDx=0;entryDy=0;exitPerimeter=0;" edge="1" parent="1" source="9PImS5-fUcPCgKuIllFG-2" target="9PImS5-fUcPCgKuIllFG-76">
          <mxGeometry width="50" height="50" relative="1" as="geometry">
            <mxPoint x="550" y="610" as="sourcePoint" />
            <mxPoint x="525" y="630" as="targetPoint" />
            <Array as="points" />
          </mxGeometry>
        </mxCell>
        <mxCell id="9PImS5-fUcPCgKuIllFG-79" value="" style="edgeStyle=elbowEdgeStyle;elbow=horizontal;endArrow=classic;html=1;curved=0;rounded=0;endSize=8;startSize=8;exitX=0;exitY=0.5;exitDx=0;exitDy=0;entryX=0;entryY=0.5;entryDx=0;entryDy=0;" edge="1" parent="1" source="9PImS5-fUcPCgKuIllFG-3" target="9PImS5-fUcPCgKuIllFG-7">
          <mxGeometry width="50" height="50" relative="1" as="geometry">
            <mxPoint x="80" y="590" as="sourcePoint" />
            <mxPoint x="100" y="550" as="targetPoint" />
            <Array as="points">
              <mxPoint x="10" y="550" />
            </Array>
          </mxGeometry>
        </mxCell>
        <mxCell id="9PImS5-fUcPCgKuIllFG-80" value="" style="endArrow=classic;html=1;rounded=0;exitX=0.217;exitY=0.983;exitDx=0;exitDy=0;exitPerimeter=0;entryX=0.5;entryY=0;entryDx=0;entryDy=0;" edge="1" parent="1" source="9PImS5-fUcPCgKuIllFG-3" target="9PImS5-fUcPCgKuIllFG-33">
          <mxGeometry width="50" height="50" relative="1" as="geometry">
            <mxPoint x="380" y="390" as="sourcePoint" />
            <mxPoint x="410" y="370" as="targetPoint" />
          </mxGeometry>
        </mxCell>
        <mxCell id="9PImS5-fUcPCgKuIllFG-81" value="" style="endArrow=classic;html=1;rounded=0;exitX=1;exitY=1;exitDx=0;exitDy=0;entryX=0.5;entryY=0;entryDx=0;entryDy=0;" edge="1" parent="1" source="9PImS5-fUcPCgKuIllFG-3" target="9PImS5-fUcPCgKuIllFG-32">
          <mxGeometry width="50" height="50" relative="1" as="geometry">
            <mxPoint x="360" y="420" as="sourcePoint" />
            <mxPoint x="410" y="370" as="targetPoint" />
          </mxGeometry>
        </mxCell>
        <mxCell id="9PImS5-fUcPCgKuIllFG-82" value="" style="edgeStyle=elbowEdgeStyle;elbow=horizontal;endArrow=classic;html=1;curved=0;rounded=0;endSize=8;startSize=8;exitX=0;exitY=0.5;exitDx=0;exitDy=0;entryX=0.081;entryY=0.2;entryDx=0;entryDy=0;entryPerimeter=0;" edge="1" parent="1" source="9PImS5-fUcPCgKuIllFG-4" target="9PImS5-fUcPCgKuIllFG-7">
          <mxGeometry width="50" height="50" relative="1" as="geometry">
            <mxPoint x="20" y="560" as="sourcePoint" />
            <mxPoint x="70" y="510" as="targetPoint" />
            <Array as="points">
              <mxPoint x="40" y="400" />
            </Array>
          </mxGeometry>
        </mxCell>
        <mxCell id="9PImS5-fUcPCgKuIllFG-83" value="" style="edgeStyle=elbowEdgeStyle;elbow=horizontal;endArrow=classic;html=1;curved=0;rounded=0;endSize=8;startSize=8;exitX=0.978;exitY=0.269;exitDx=0;exitDy=0;exitPerimeter=0;entryX=0.692;entryY=0.036;entryDx=0;entryDy=0;entryPerimeter=0;" edge="1" parent="1" source="9PImS5-fUcPCgKuIllFG-6" target="9PImS5-fUcPCgKuIllFG-7">
          <mxGeometry width="50" height="50" relative="1" as="geometry">
            <mxPoint x="850" y="520" as="sourcePoint" />
            <mxPoint x="900" y="470" as="targetPoint" />
            <Array as="points">
              <mxPoint x="850" y="380" />
              <mxPoint x="880" y="380" />
            </Array>
          </mxGeometry>
        </mxCell>
        <mxCell id="9PImS5-fUcPCgKuIllFG-86" value="" style="edgeStyle=elbowEdgeStyle;elbow=vertical;endArrow=classic;html=1;curved=0;rounded=0;endSize=8;startSize=8;entryX=0.941;entryY=0.186;entryDx=0;entryDy=0;entryPerimeter=0;" edge="1" parent="1" target="9PImS5-fUcPCgKuIllFG-7">
          <mxGeometry width="50" height="50" relative="1" as="geometry">
            <mxPoint x="500" y="230" as="sourcePoint" />
            <mxPoint x="1237.111083984375" y="110" as="targetPoint" />
            <Array as="points" />
          </mxGeometry>
        </mxCell>
        <mxCell id="9PImS5-fUcPCgKuIllFG-89" value="" style="shape=flexArrow;endArrow=classic;html=1;rounded=0;exitX=1.024;exitY=0.432;exitDx=0;exitDy=0;entryX=0;entryY=0.5;entryDx=0;entryDy=0;exitPerimeter=0;fillColor=default;" edge="1" parent="1" source="9PImS5-fUcPCgKuIllFG-7" target="9PImS5-fUcPCgKuIllFG-2">
          <mxGeometry width="50" height="50" relative="1" as="geometry">
            <mxPoint x="350" y="390" as="sourcePoint" />
            <mxPoint x="400" y="340" as="targetPoint" />
          </mxGeometry>
        </mxCell>
      </root>
    </mxGraphModel>
  </diagram>
</mxfile>
